<mxfile host="app.diagrams.net" modified="2024-05-20T21:57:05.141Z" agent="Mozilla/5.0 (Windows NT 10.0; Win64; x64) AppleWebKit/537.36 (KHTML, like Gecko) Chrome/124.0.0.0 Safari/537.36" etag="bLqSBNxPNdq1XfVfJi3j" version="24.4.4" type="device">
  <diagram name="PÃ¡gina-1" id="kxbvsH5rkfckYB5Q4Mhn">
    <mxGraphModel dx="1434" dy="738" grid="1" gridSize="10" guides="1" tooltips="1" connect="1" arrows="1" fold="1" page="1" pageScale="1" pageWidth="827" pageHeight="1169" math="0" shadow="0">
      <root>
        <mxCell id="0" />
        <mxCell id="1" parent="0" />
        <mxCell id="BbeV3XJESG2GP06kKHkE-21" style="edgeStyle=orthogonalEdgeStyle;rounded=0;orthogonalLoop=1;jettySize=auto;html=1;exitX=1;exitY=0.5;exitDx=0;exitDy=0;entryX=0.5;entryY=0;entryDx=0;entryDy=0;curved=1;" edge="1" parent="1" source="BbeV3XJESG2GP06kKHkE-3" target="BbeV3XJESG2GP06kKHkE-19">
          <mxGeometry relative="1" as="geometry" />
        </mxCell>
        <mxCell id="BbeV3XJESG2GP06kKHkE-22" style="edgeStyle=orthogonalEdgeStyle;rounded=0;orthogonalLoop=1;jettySize=auto;html=1;exitX=0.5;exitY=1;exitDx=0;exitDy=0;entryX=0.5;entryY=0;entryDx=0;entryDy=0;curved=1;" edge="1" parent="1" source="BbeV3XJESG2GP06kKHkE-3" target="BbeV3XJESG2GP06kKHkE-17">
          <mxGeometry relative="1" as="geometry" />
        </mxCell>
        <mxCell id="BbeV3XJESG2GP06kKHkE-23" style="edgeStyle=orthogonalEdgeStyle;rounded=0;orthogonalLoop=1;jettySize=auto;html=1;exitX=0;exitY=0.5;exitDx=0;exitDy=0;entryX=0.5;entryY=0;entryDx=0;entryDy=0;curved=1;" edge="1" parent="1" source="BbeV3XJESG2GP06kKHkE-3" target="BbeV3XJESG2GP06kKHkE-6">
          <mxGeometry relative="1" as="geometry" />
        </mxCell>
        <mxCell id="BbeV3XJESG2GP06kKHkE-3" value="Iphone" style="swimlane;fontStyle=1;align=center;verticalAlign=middle;childLayout=stackLayout;horizontal=1;startSize=29;horizontalStack=0;resizeParent=1;resizeParentMax=0;resizeLast=0;collapsible=0;marginBottom=0;html=1;whiteSpace=wrap;" vertex="1" parent="1">
          <mxGeometry x="335" y="320" width="140" height="54" as="geometry" />
        </mxCell>
        <mxCell id="BbeV3XJESG2GP06kKHkE-6" value="ReprodutorMusical" style="swimlane;fontStyle=1;align=center;verticalAlign=middle;childLayout=stackLayout;horizontal=1;startSize=29;horizontalStack=0;resizeParent=1;resizeParentMax=0;resizeLast=0;collapsible=0;marginBottom=0;html=1;whiteSpace=wrap;" vertex="1" parent="1">
          <mxGeometry x="70" y="470" width="190" height="90" as="geometry" />
        </mxCell>
        <mxCell id="BbeV3XJESG2GP06kKHkE-7" value="tocar()&lt;div&gt;pausar()&lt;/div&gt;&lt;div&gt;selecionarMusica(String musica)&lt;/div&gt;" style="text;html=1;strokeColor=none;fillColor=none;align=center;verticalAlign=middle;spacingLeft=4;spacingRight=4;overflow=hidden;rotatable=0;points=[[0,0.5],[1,0.5]];portConstraint=eastwest;whiteSpace=wrap;" vertex="1" parent="BbeV3XJESG2GP06kKHkE-6">
          <mxGeometry y="29" width="190" height="61" as="geometry" />
        </mxCell>
        <mxCell id="BbeV3XJESG2GP06kKHkE-17" value="AparelhoTelefonico" style="swimlane;fontStyle=1;align=center;verticalAlign=middle;childLayout=stackLayout;horizontal=1;startSize=29;horizontalStack=0;resizeParent=1;resizeParentMax=0;resizeLast=0;collapsible=0;marginBottom=0;html=1;whiteSpace=wrap;" vertex="1" parent="1">
          <mxGeometry x="310" y="470" width="190" height="90" as="geometry" />
        </mxCell>
        <mxCell id="BbeV3XJESG2GP06kKHkE-18" value="ligar(String numero)&lt;div&gt;atender()&lt;/div&gt;&lt;div&gt;iniciarCorreioVoz()&lt;/div&gt;" style="text;html=1;strokeColor=none;fillColor=none;align=center;verticalAlign=middle;spacingLeft=4;spacingRight=4;overflow=hidden;rotatable=0;points=[[0,0.5],[1,0.5]];portConstraint=eastwest;whiteSpace=wrap;" vertex="1" parent="BbeV3XJESG2GP06kKHkE-17">
          <mxGeometry y="29" width="190" height="61" as="geometry" />
        </mxCell>
        <mxCell id="BbeV3XJESG2GP06kKHkE-19" value="NavegadorInternet" style="swimlane;fontStyle=1;align=center;verticalAlign=middle;childLayout=stackLayout;horizontal=1;startSize=29;horizontalStack=0;resizeParent=1;resizeParentMax=0;resizeLast=0;collapsible=0;marginBottom=0;html=1;whiteSpace=wrap;" vertex="1" parent="1">
          <mxGeometry x="570" y="470" width="190" height="90" as="geometry" />
        </mxCell>
        <mxCell id="BbeV3XJESG2GP06kKHkE-20" value="exibirPagina(String url)&lt;div&gt;adicionarNovaAba()&lt;/div&gt;&lt;div&gt;atualizarPagina()&lt;/div&gt;" style="text;html=1;strokeColor=none;fillColor=none;align=center;verticalAlign=middle;spacingLeft=4;spacingRight=4;overflow=hidden;rotatable=0;points=[[0,0.5],[1,0.5]];portConstraint=eastwest;whiteSpace=wrap;" vertex="1" parent="BbeV3XJESG2GP06kKHkE-19">
          <mxGeometry y="29" width="190" height="61" as="geometry" />
        </mxCell>
      </root>
    </mxGraphModel>
  </diagram>
</mxfile>
